<svg width="18" height="20" viewBox="0 0 18 20" fill="none" xmlns="http://www.w3.org/2000/svg">
<path fill-rule="evenodd" clip-rule="evenodd" d="M14.4539 1.87575e-07C13.9352 -0.000163409 13.4228 0.106688 12.9528 0.313017C12.4828 0.519346 12.0666 0.820126 11.7338 1.19414C11.4009 1.56815 11.1593 2.00628 11.0262 2.47763C10.893 2.94898 10.8715 3.44206 10.9631 3.92208L5.80312 7.31903C5.77732 7.33581 5.75255 7.35396 5.72894 7.37339C5.20546 6.98865 4.57752 6.74996 3.91672 6.68453C3.25593 6.61911 2.58888 6.72959 1.99163 7.00336C1.39439 7.27714 0.891 7.7032 0.538858 8.23296C0.186717 8.76272 0 9.37485 0 9.99956C0 10.6243 0.186717 11.2364 0.538858 11.7662C0.891 12.2959 1.39439 12.722 1.99163 12.9958C2.58888 13.2695 3.25593 13.38 3.91672 13.3146C4.57752 13.2492 5.20546 13.0105 5.72894 12.6257C5.75252 12.6455 5.77728 12.664 5.80312 12.6811L10.9631 16.0781C10.8099 16.8809 10.9751 17.7087 11.4274 18.4047C11.8798 19.1007 12.5878 19.6166 13.4176 19.8547C14.2473 20.0929 15.1411 20.0368 15.9298 19.697C16.7184 19.3572 17.3472 18.7573 17.6971 18.0109C18.047 17.2646 18.0936 16.4235 17.8282 15.6469C17.5628 14.8704 17.0038 14.2123 16.257 13.7972C15.5102 13.3821 14.6275 13.2389 13.7759 13.3946C12.9243 13.5503 12.163 13.9942 11.6362 14.6422L6.75002 11.4268C6.9682 10.9939 7.09038 10.5108 7.09038 10.0001C7.09038 9.4893 6.9682 9.00519 6.75002 8.5734L11.6372 5.35696C12.0033 5.8075 12.4856 6.1628 13.0384 6.38926C13.5913 6.61572 14.1964 6.70587 14.7966 6.65117C15.3969 6.59647 15.9723 6.39873 16.4686 6.07666C16.9649 5.75458 17.3656 5.31882 17.6328 4.81056C17.9001 4.30231 18.025 3.73837 17.9958 3.17207C17.9667 2.60577 17.7843 2.05582 17.4661 1.57423C17.1479 1.09265 16.7042 0.695338 16.1771 0.419874C15.6501 0.14441 15.057 -0.000102728 14.4539 1.87575e-07ZM12.5449 3.33336C12.5449 2.85733 12.746 2.40079 13.104 2.06418C13.462 1.72758 13.9476 1.53847 14.4539 1.53847C14.9603 1.53847 15.4458 1.72758 15.8039 2.06418C16.1619 2.40079 16.363 2.85733 16.363 3.33336C16.363 3.80939 16.1619 4.26593 15.8039 4.60253C15.4458 4.93914 14.9603 5.12824 14.4539 5.12824C13.9476 5.12824 13.462 4.93914 13.104 4.60253C12.746 4.26593 12.5449 3.80939 12.5449 3.33336ZM3.54496 8.20519C3.03865 8.20519 2.55307 8.39429 2.19505 8.7309C1.83703 9.0675 1.63589 9.52404 1.63589 10.0001C1.63589 10.4761 1.83703 10.9326 2.19505 11.2692C2.55307 11.6059 3.03865 11.795 3.54496 11.795C4.05128 11.795 4.53686 11.6059 4.89488 11.2692C5.2529 10.9326 5.45403 10.4761 5.45403 10.0001C5.45403 9.52404 5.2529 9.0675 4.89488 8.7309C4.53686 8.39429 4.05128 8.20519 3.54496 8.20519ZM14.4539 14.8719C13.9476 14.8719 13.462 15.061 13.104 15.3976C12.746 15.7342 12.5449 16.1908 12.5449 16.6668C12.5449 17.1428 12.746 17.5994 13.104 17.936C13.462 18.2726 13.9476 18.4617 14.4539 18.4617C14.9603 18.4617 15.4458 18.2726 15.8039 17.936C16.1619 17.5994 16.363 17.1428 16.363 16.6668C16.363 16.1908 16.1619 15.7342 15.8039 15.3976C15.4458 15.061 14.9603 14.8719 14.4539 14.8719Z" fill="white"/>
</svg>
