<svg width="20" height="20" viewBox="0 0 20 20" fill="none" xmlns="http://www.w3.org/2000/svg">
<path fill-rule="evenodd" clip-rule="evenodd" d="M9.65063 1C14.4205 1 18.3004 4.79428 18.3004 9.45896C18.3004 11.6597 17.4367 13.667 16.0235 15.1734L18.8044 17.8873C19.0646 18.1418 19.0655 18.5535 18.8053 18.808C18.6756 18.9366 18.5041 19 18.3336 19C18.1639 19 17.9934 18.9366 17.8628 18.8098L15.0484 16.0651C13.5679 17.2246 11.6906 17.9188 9.65063 17.9188C4.88075 17.9188 1 14.1236 1 9.45896C1 4.79428 4.88075 1 9.65063 1ZM9.65063 2.30298C5.61533 2.30298 2.33237 5.51266 2.33237 9.45896C2.33237 13.4053 5.61533 16.6158 9.65063 16.6158C13.685 16.6158 16.968 13.4053 16.968 9.45896C16.968 5.51266 13.685 2.30298 9.65063 2.30298Z" fill="#1C1C1C" stroke="#1C1C1C" stroke-width="0.5"/>
</svg>
